<?xml version="1.0" encoding="UTF-8"?>
<svg xmlns="http://www.w3.org/2000/svg" xmlns:xlink="http://www.w3.org/1999/xlink" width="15px" height="15px" viewBox="0 0 15 15" version="1.1">
<g id="surface1">
<path style=" stroke:none;fill-rule:nonzero;fill:rgb(7.058824%,84.705882%,78.431373%);fill-opacity:1;" d="M 7.140625 9.953125 C 6.824219 10.273438 6.300781 10.273438 5.984375 9.953125 L 4.109375 8.078125 C 3.789062 7.761719 3.789062 7.238281 4.109375 6.921875 C 4.425781 6.601562 4.949219 6.601562 5.265625 6.921875 L 6.5625 8.214844 L 9.734375 5.046875 C 10.050781 4.726562 10.574219 4.726562 10.890625 5.046875 C 11.210938 5.363281 11.210938 5.886719 10.890625 6.203125 Z M 15 7.5 C 15 11.640625 11.640625 15 7.5 15 C 3.359375 15 0 11.640625 0 7.5 C 0 3.359375 3.359375 0 7.5 0 C 11.640625 0 15 3.359375 15 7.5 Z M 7.5 1.40625 C 4.132812 1.40625 1.40625 4.132812 1.40625 7.5 C 1.40625 10.867188 4.132812 13.59375 7.5 13.59375 C 10.867188 13.59375 13.59375 10.867188 13.59375 7.5 C 13.59375 4.132812 10.867188 1.40625 7.5 1.40625 Z M 7.5 1.40625 "/>
</g>
</svg>
