<?xml version="1.0" encoding="UTF-8"?>
<svg xmlns="http://www.w3.org/2000/svg" xmlns:xlink="http://www.w3.org/1999/xlink" width="20px" height="27px" viewBox="0 0 20 26" version="1.1">
<g id="surface1">
<path style=" stroke:none;fill-rule:nonzero;fill:#236cb0;fill-opacity:1;" d="M 3.332031 0 C 1.496094 0 0 1.457031 0 3.25 L 0 22.75 C 0 24.542969 1.496094 26 3.332031 26 L 16.667969 26 C 18.503906 26 20 24.542969 20 22.75 L 20 8.125 L 13.332031 8.125 C 12.410156 8.125 11.667969 7.398438 11.667969 6.5 L 11.667969 0 Z M 13.332031 0 L 13.332031 6.5 L 20 6.5 Z M 11.25 11.78125 L 11.25 16.964844 L 12.863281 15.390625 C 13.355469 14.914062 14.144531 14.914062 14.628906 15.390625 C 15.113281 15.867188 15.121094 16.640625 14.628906 17.113281 L 10.878906 20.769531 C 10.390625 21.246094 9.597656 21.246094 9.113281 20.769531 L 5.363281 17.113281 C 4.875 16.636719 4.875 15.863281 5.363281 15.390625 C 5.855469 14.917969 6.644531 14.914062 7.128906 15.390625 L 8.746094 16.964844 L 8.746094 11.78125 C 8.746094 11.105469 9.300781 10.5625 9.996094 10.5625 C 10.6875 10.5625 11.246094 11.105469 11.246094 11.78125 Z M 11.25 11.78125 "/>
</g>
</svg>
