<?xml version="1.0" encoding="UTF-8"?>
<svg xmlns="http://www.w3.org/2000/svg" xmlns:xlink="http://www.w3.org/1999/xlink" width="35px" height="40px" viewBox="0 0 35 40" version="1.1">
<g id="surface1">
<path style=" stroke:none;fill-rule:nonzero;fill:#D86012; fill-opacity:1;" d="M 35 3.75 L 35 30 C 30.078125 31.796875 28.59375 32.5 25.703125 32.5 C 20.78125 32.5 18.90625 30 13.984375 30 C 12.421875 30 11.171875 30.3125 10 30.625 L 10 25.625 C 11.171875 25.3125 12.421875 25 13.984375 25 C 18.90625 25 20.78125 27.5 25.703125 27.5 C 27.265625 27.5 28.4375 27.265625 30 26.796875 L 30 10.546875 C 28.4375 11.015625 27.265625 11.25 25.703125 11.25 C 20.78125 11.25 18.90625 8.75 13.984375 8.75 C 10 8.75 8.125 10.390625 5 11.015625 L 5 35 C 5 36.40625 3.90625 37.5 2.5 37.5 C 1.09375 37.5 0 36.40625 0 35 L 0 5 C 0 3.59375 1.09375 2.5 2.5 2.5 C 3.90625 2.5 5 3.59375 5 5 L 5 6.015625 C 8.125 5.390625 10 3.75 13.984375 3.75 C 18.90625 3.75 20.78125 6.25 25.703125 6.25 C 28.59375 6.25 30.078125 5.546875 35 3.75 Z M 35 3.75 "/>
</g>
</svg>
