<?xml version="1.0" encoding="UTF-8"?>
<svg xmlns="http://www.w3.org/2000/svg" xmlns:xlink="http://www.w3.org/1999/xlink" width="43px" height="43px" viewBox="0 0 43 43" version="1.1">
<g id="surface1">
<path style=" stroke:none;fill-rule:nonzero;fill:#236cb0; fill-opacity:1;" d="M 41.648438 13.992188 C 41.917969 14.722656 41.691406 15.539062 41.109375 16.058594 L 37.472656 19.367188 C 37.566406 20.0625 37.617188 20.777344 37.617188 21.5 C 37.617188 22.222656 37.566406 22.9375 37.472656 23.632812 L 41.109375 26.941406 C 41.691406 27.460938 41.917969 28.277344 41.648438 29.007812 C 41.277344 30.007812 40.832031 30.964844 40.320312 31.890625 L 39.925781 32.570312 C 39.371094 33.492188 38.75 34.367188 38.070312 35.1875 C 37.574219 35.792969 36.75 35.996094 36.011719 35.761719 L 31.335938 34.273438 C 30.210938 35.140625 28.964844 35.859375 27.640625 36.40625 L 26.589844 41.203125 C 26.421875 41.96875 25.832031 42.570312 25.0625 42.699219 C 23.902344 42.890625 22.710938 42.992188 21.492188 42.992188 C 20.273438 42.992188 19.082031 42.890625 17.921875 42.699219 C 17.148438 42.570312 16.5625 41.96875 16.394531 41.203125 L 15.34375 36.40625 C 14.015625 35.859375 12.773438 35.140625 11.648438 34.273438 L 6.980469 35.769531 C 6.238281 36.003906 5.417969 35.792969 4.921875 35.199219 C 4.242188 34.375 3.621094 33.5 3.066406 32.578125 L 2.671875 31.898438 C 2.160156 30.972656 1.714844 30.015625 1.34375 29.015625 C 1.074219 28.285156 1.300781 27.472656 1.882812 26.949219 L 5.519531 23.640625 C 5.425781 22.9375 5.375 22.222656 5.375 21.5 C 5.375 20.777344 5.425781 20.0625 5.519531 19.367188 L 1.882812 16.058594 C 1.300781 15.539062 1.074219 14.722656 1.34375 13.992188 C 1.714844 12.992188 2.160156 12.035156 2.671875 11.109375 L 3.066406 10.429688 C 3.621094 9.507812 4.242188 8.632812 4.921875 7.8125 C 5.417969 7.207031 6.238281 7.003906 6.980469 7.238281 L 11.65625 8.726562 C 12.78125 7.859375 14.023438 7.140625 15.351562 6.59375 L 16.402344 1.796875 C 16.570312 1.03125 17.15625 0.429688 17.929688 0.300781 C 19.089844 0.101562 20.28125 0 21.5 0 C 22.71875 0 23.910156 0.101562 25.070312 0.292969 C 25.84375 0.421875 26.429688 1.023438 26.597656 1.789062 L 27.648438 6.585938 C 28.976562 7.128906 30.21875 7.851562 31.34375 8.71875 L 36.019531 7.230469 C 36.761719 6.996094 37.582031 7.207031 38.078125 7.800781 C 38.757812 8.625 39.378906 9.5 39.933594 10.421875 L 40.328125 11.101562 C 40.839844 12.027344 41.285156 12.984375 41.65625 13.984375 Z M 21.5 28.21875 C 25.210938 28.21875 28.21875 25.210938 28.21875 21.5 C 28.21875 17.789062 25.210938 14.78125 21.5 14.78125 C 17.789062 14.78125 14.78125 17.789062 14.78125 21.5 C 14.78125 25.210938 17.789062 28.21875 21.5 28.21875 Z M 21.5 28.21875 "/>
</g>
</svg>
