<?xml version="1.0" encoding="UTF-8"?>
<svg xmlns="http://www.w3.org/2000/svg" xmlns:xlink="http://www.w3.org/1999/xlink" width="27px" height="27px" viewBox="0 0 27 27" version="1.1">
<g id="surface1">
<path style=" stroke:none;fill-rule:nonzero;fill:rgb(7.058824%,84.705882%,23.921569%);fill-opacity:1;" d="M 5.539062 10.683594 C 5.949219 9.535156 6.605469 8.457031 7.539062 7.53125 C 10.832031 4.238281 16.175781 4.238281 19.46875 7.53125 L 20.375 8.4375 L 17.71875 8.4375 C 16.789062 8.4375 16.03125 9.195312 16.03125 10.125 C 16.03125 11.054688 16.789062 11.8125 17.71875 11.8125 L 24.460938 11.8125 C 25.398438 11.8125 26.148438 11.054688 26.148438 10.125 L 26.148438 3.375 C 26.148438 2.445312 25.398438 1.6875 24.460938 1.6875 C 23.53125 1.6875 22.773438 2.445312 22.773438 3.375 L 22.773438 6.074219 L 21.851562 5.148438 C 17.242188 0.535156 9.757812 0.535156 5.148438 5.148438 C 3.859375 6.433594 2.933594 7.949219 2.363281 9.566406 C 2.054688 10.449219 2.511719 11.410156 3.394531 11.71875 C 4.269531 12.03125 5.230469 11.5625 5.539062 10.691406 Z M 2.058594 15.253906 C 1.792969 15.335938 1.539062 15.480469 1.332031 15.691406 C 1.121094 15.902344 0.980469 16.15625 0.90625 16.429688 C 0.894531 16.492188 0.875 16.558594 0.863281 16.625 C 0.851562 16.714844 0.84375 16.808594 0.84375 16.894531 L 0.84375 23.625 C 0.84375 24.554688 1.601562 25.3125 2.53125 25.3125 C 3.460938 25.3125 4.21875 24.554688 4.21875 23.625 L 4.21875 20.933594 L 5.148438 21.851562 C 9.757812 26.460938 17.242188 26.460938 21.851562 21.851562 C 23.136719 20.566406 24.066406 19.050781 24.636719 17.441406 C 24.945312 16.558594 24.488281 15.597656 23.605469 15.285156 C 22.730469 14.976562 21.769531 15.441406 21.460938 16.316406 C 21.050781 17.464844 20.394531 18.542969 19.460938 19.46875 C 16.167969 22.761719 10.824219 22.761719 7.53125 19.46875 L 6.625 18.5625 L 9.28125 18.5625 C 10.210938 18.5625 10.96875 17.804688 10.96875 16.875 C 10.96875 15.945312 10.210938 15.1875 9.28125 15.1875 L 2.550781 15.1875 C 2.46875 15.1875 2.382812 15.195312 2.300781 15.207031 C 2.214844 15.210938 2.132812 15.230469 2.058594 15.253906 Z M 2.058594 15.253906 "/>
</g>
</svg>
