<?xml version="1.0" encoding="UTF-8"?>
<svg xmlns="http://www.w3.org/2000/svg" xmlns:xlink="http://www.w3.org/1999/xlink" width="35px" height="46px" viewBox="0 0 35 45" version="1.1">
<g id="surface1">
<path style=" stroke:none;fill-rule:nonzero;fill:rgb(7.058824%,84.705882%,78.431373%);fill-opacity:1;" d="M 17.5 0.523438 C 13.691406 0.523438 10.445312 2.816406 9.25 6.015625 L 5.832031 6.015625 C 2.617188 6.015625 0 8.484375 0 11.511719 L 0 38.984375 C 0 42.011719 2.617188 44.476562 5.832031 44.476562 L 29.167969 44.476562 C 32.382812 44.476562 35 42.011719 35 38.984375 L 35 11.511719 C 35 8.484375 32.382812 6.015625 29.167969 6.015625 L 25.75 6.015625 C 24.554688 2.816406 21.308594 0.523438 17.5 0.523438 Z M 17.5 6.015625 C 19.109375 6.015625 20.417969 7.246094 20.417969 8.765625 C 20.417969 10.28125 19.109375 11.511719 17.5 11.511719 C 15.890625 11.511719 14.582031 10.28125 14.582031 8.765625 C 14.582031 7.246094 15.890625 6.015625 17.5 6.015625 Z M 10.207031 17.003906 L 24.792969 17.003906 C 25.59375 17.003906 26.25 17.625 26.25 18.378906 C 26.25 19.136719 25.59375 19.753906 24.792969 19.753906 L 10.207031 19.753906 C 9.40625 19.753906 8.75 19.136719 8.75 18.378906 C 8.75 17.625 9.40625 17.003906 10.207031 17.003906 Z M 10.207031 17.003906 "/>
</g>
</svg>
