<?xml version="1.0" encoding="UTF-8"?>
<svg xmlns="http://www.w3.org/2000/svg" xmlns:xlink="http://www.w3.org/1999/xlink" width="43px" height="38px" viewBox="0 0 42 38" version="1.1">
<g id="surface1">
<path style=" stroke:none;fill-rule:nonzero;fill:#8112D8;fill-opacity:1;" d="M 41.753906 20.0625 L 34.753906 34.3125 C 34.359375 35.121094 33.550781 35.625 32.601562 35.625 L 4.667969 35.625 C 2.089844 35.625 0 33.496094 0 30.875 L 0 7.125 C 0 4.503906 2.089844 2.375 4.667969 2.375 L 13.234375 2.375 C 14.472656 2.375 15.660156 2.875 16.535156 3.765625 L 20.117188 7.125 L 30.332031 7.125 C 32.910156 7.125 35 9.253906 35 11.875 L 35 14.25 L 31.5 14.25 L 31.5 11.875 C 31.5 11.21875 30.976562 10.6875 30.332031 10.6875 L 18.667969 10.6875 L 14.058594 6.285156 C 13.839844 6.0625 13.546875 5.9375 13.234375 5.9375 L 4.667969 5.9375 C 4.023438 5.9375 3.5 6.46875 3.5 7.125 L 3.5 28.5 L 8.6875 17.9375 C 9.085938 17.128906 9.894531 16.625 10.777344 16.625 L 39.667969 16.625 C 41.394531 16.625 42.523438 18.480469 41.753906 20.0625 Z M 41.753906 20.0625 "/>
</g>
</svg>
