<?xml version="1.0" encoding="UTF-8"?>
<svg xmlns="http://www.w3.org/2000/svg" xmlns:xlink="http://www.w3.org/1999/xlink" width="45px" height="45px" viewBox="0 0 45 45" version="1.1">
<g id="surface1">
<path style=" stroke:none; fill:#D2D812; fill-opacity:1;" d="M 22.5 2.8125 C 23.75 2.8125 24.898438 3.472656 25.53125 4.554688 L 44.515625 36.898438 C 45.15625 37.984375 45.15625 39.332031 44.535156 40.421875 C 43.910156 41.511719 42.742188 42.1875 41.484375 42.1875 L 3.515625 42.1875 C 2.257812 42.1875 1.089844 41.511719 0.464844 40.421875 C -0.160156 39.332031 -0.148438 37.976562 0.484375 36.894531 L 19.46875 4.550781 C 20.101562 3.472656 21.25 2.8125 22.5 2.8125 Z M 22.5 14.0625 C 21.332031 14.0625 20.390625 15.003906 20.390625 16.171875 L 20.390625 26.015625 C 20.390625 27.183594 21.332031 28.125 22.5 28.125 C 23.667969 28.125 24.609375 27.183594 24.609375 26.015625 L 24.609375 16.171875 C 24.609375 15.003906 23.667969 14.0625 22.5 14.0625 Z M 25.3125 33.75 C 25.3125 32.195312 24.054688 30.9375 22.5 30.9375 C 20.945312 30.9375 19.6875 32.195312 19.6875 33.75 C 19.6875 35.304688 20.945312 36.5625 22.5 36.5625 C 24.054688 36.5625 25.3125 35.304688 25.3125 33.75 Z M 25.3125 33.75 "/>
</g>
</svg>
